<?xml version="1.0" encoding="UTF-8" standalone="no"?>
<svg
   viewBox="0 0 512 512"
   version="1.1"
   id="svg1"
   width="512"
   height="512"
   xmlns="http://www.w3.org/2000/svg"
   xmlns:svg="http://www.w3.org/2000/svg">
  <defs
     id="defs1" />
  <rect
     fill="#478cbf"
     fill-opacity="1"
     height="512"
     width="512"
     rx="32"
     ry="32"
     id="rect1"
     x="0"
     y="0" />
  <g
     class=""
     transform="translate(92.595744,6.6572104)"
     id="g1">
    <path
       d="m 271.9,25.85 c -18.4,0 -36,16.73 -39.2,40.97 -3.4,25.83 11.3,47.48 30.9,49.88 19.7,2.4 39.5,-14.9 43,-40.77 3.5,-25.86 -11.5,-47.43 -31,-49.85 -1.2,-0.15 -2.5,-0.23 -3.7,-0.23 z m -38.2,95.75 c -38,6.3 -75.2,41.9 -94,66 -11.5,33.4 -14.5,66.7 -20.7,100 l 28.2,-0.8 c 6.6,-25.2 8.2,-51.9 21,-75.4 14.8,-8.2 26.9,-20.6 38.4,-33.8 -6.4,32.9 -14,72.3 -13.2,101.8 29.8,70.9 95.7,140.4 133,206.4 l 29.9,-24.3 C 327.5,405.8 298.8,355.1 262,301.3 c 2.1,-7.1 43.3,-163.5 28,-171.9 -20.2,9 -40.9,6 -56.3,-7.8 z m 71.9,58.6 c -3.1,17.8 -5.3,35.1 -10,52.8 4.5,5.4 7.5,10.5 14.3,15.3 26,15.3 52,26.3 78,36.7 l 9.2,-29.9 -77.5,-37.6 c -4.3,-12.5 -7.9,-25.2 -14,-37.3 z M 187.1,310.1 c -5.1,25 -9.8,50.2 -11.6,76.5 -15.9,31.7 -35.7,51.6 -60.5,76.4 l 30,23.2 c 23.1,-25 49.9,-47 66.7,-73.8 l 14,-42.6 C 210,350.8 197.3,331 187.1,310.1 Z"
       fill="#ffffff"
       fill-opacity="1"
       id="path1" />
  </g>
  <path
     d="m 39.761965,417.09526 q 0,-13.98677 4.118186,-24.52474 3.922082,-10.72957 10.785725,-10.72957 6.863642,0 17.061055,5.17318 10.001308,4.98159 10.001308,8.43038 0,0.958 -0.980521,2.2992 -1.176624,1.14959 -2.353249,5.74798 -1.372728,4.40679 -1.372728,7.66398 0,11.11278 8.040267,18.01036 8.040267,6.70599 24.709112,6.70599 16.47274,0 24.51301,-6.89759 8.04027,-7.08918 8.04027,-17.81876 0,-4.40679 -1.17663,-9.77157 -1.37272,-5.55639 -3.72597,-7.85558 -0.39221,-0.3832 -0.39221,-1.5328 0,-1.1496 4.51039,-4.21519 4.31429,-3.25719 11.57014,-5.93958 7.05975,-2.6824 10.98183,-2.6824 7.64806,0 12.15846,11.49597 4.51039,11.49598 4.51039,27.20714 0,25.29114 -18.23768,41.5771 -18.23768,16.28596 -51.37927,16.28596 -33.337693,0 -52.359789,-16.66916 -19.022096,-16.86076 -19.022096,-41.9603 z"
     id="text8"
     style="font-size:40px;line-height:1.25;font-family:'Lilita One';-inkscape-font-specification:'Lilita One';text-align:center;letter-spacing:0px;word-spacing:0px;white-space:pre;fill:#ffffff;stroke-width:4.84597"
     aria-label="C" />
  <path
     d="m 176.0543,327.81007 q 3.13767,0 3.13767,18.20196 0,18.39355 -2.94156,18.39355 H 48.390545 q -6.863643,0 -6.863643,-7.08918 v -36.59551 q 0,-50.39068 40.201337,-50.39068 12.158453,0 22.159761,4.59839 9.8052,4.59839 15.68833,13.02877 l 41.18185,-24.14154 q 4.7065,1.53279 10.78573,9.96317 8.43247,11.49598 8.43247,18.96836 0,7.47238 -5.49091,11.11277 l -42.9468,18.01036 v 5.93958 z m -99.816976,0 h 29.415616 v -0.958 q 0,-18.20195 -15.492226,-18.20195 -7.059747,0 -10.393516,3.64039 -3.529874,3.44879 -3.529874,11.49597 z"
     id="text7"
     style="font-size:40px;line-height:1.25;font-family:'Lilita One';-inkscape-font-specification:'Lilita One';text-align:center;letter-spacing:0px;word-spacing:0px;white-space:pre;fill:#ffffff;stroke-width:4.84597"
     aria-label="R" />
  <path
     d="m 179.19197,234.69304 q 0,17.43555 -3.92209,17.43555 H 48.194441 q -6.667539,0 -6.667539,-5.93958 v -33.72152 q 0,-28.35673 11.962349,-40.8107 11.962349,-12.64557 34.710422,-12.64557 18.825987,0 34.514317,11.87917 7.84416,5.93959 12.55066,17.43556 4.7065,11.49597 4.7065,26.82393 h 35.10263 q 2.35325,0 3.33377,7.28079 0.78442,7.08918 0.78442,12.26237 z M 75.649012,215.14988 h 30.984448 v -2.49079 q 0,-6.70598 -4.31429,-11.30437 -4.314293,-4.59839 -12.158456,-4.59839 -7.844163,0 -11.177933,3.25719 -3.333769,3.06559 -3.333769,11.11277 z"
     id="text6"
     style="font-size:40px;line-height:1.25;font-family:'Lilita One';-inkscape-font-specification:'Lilita One';text-align:center;letter-spacing:0px;word-spacing:0px;white-space:pre;fill:#ffffff;stroke-width:4.84597"
     aria-label="P" />
  <path
     d="m 137.81401,71.258734 -26.67016,-0.383199 q -2.74546,0 -3.52987,-5.556386 -0.98052,-5.556387 -0.98052,-9.196778 l 0.58831,-7.472381 q 1.17662,-7.280782 4.11818,-7.280782 l 61.38058,0.766398 q 2.74546,3.83199 5.49092,15.519561 2.54935,11.495972 2.54935,26.440735 0,27.781928 -18.43378,44.834288 -18.43379,17.05236 -54.12473,17.05236 -30.396133,0 -49.418229,-16.66916 -19.022096,-16.66916 -19.022096,-46.175485 0,-13.411967 2.745458,-24.141541 2.549353,-10.921173 7.059746,-14.944763 1.568833,-0.1916 5.883123,-0.1916 4.31429,0 12.354557,2.873993 7.844163,2.873993 11.766245,6.514384 3.922081,3.640391 3.922081,5.364787 0,1.532796 -1.372728,3.448792 -1.568833,1.724395 -3.137666,7.089182 -1.764936,5.364787 -1.764936,10.346375 0,11.87917 7.844163,19.351552 7.844163,7.280784 24.316902,7.280784 16.47275,0 25.10133,-7.472384 8.43247,-7.663981 8.43247,-17.435557 0,-9.963175 -5.0987,-9.963175 z"
     id="text5"
     style="font-size:40px;line-height:1.25;font-family:'Lilita One';-inkscape-font-specification:'Lilita One';text-align:center;letter-spacing:0px;word-spacing:0px;white-space:pre;fill:#ffffff;stroke-width:4.84597"
     aria-label="G" />
</svg>
